<?xml version="1.0" encoding="utf-8"?>
<!-- Generator: Adobe Illustrator 18.1.1, SVG Export Plug-In . SVG Version: 6.00 Build 0)  -->
<!DOCTYPE svg PUBLIC "-//W3C//DTD SVG 1.1//EN" "http://www.w3.org/Graphics/SVG/1.1/DTD/svg11.dtd">
<svg version="1.1" id="Layer_1" xmlns="http://www.w3.org/2000/svg" xmlns:xlink="http://www.w3.org/1999/xlink" x="0px" y="0px"
	 width="290px" height="42px" viewBox="0 0 290 42" enable-background="new 0 0 290 42" xml:space="preserve">
<polygon fill="#008952" points="33.6,16.1 33.6,0 41.4,7.8 41.4,35.1 7.8,1.6 7.8,31.7 0,23.9 0,0 17.5,0 "/>
<polygon fill="#008952" points="43.2,39.5 43.2,9.6 51.1,17.4 51.1,41.2 33.9,41.2 17.5,24.8 17.4,41.3 9.6,33.5 9.6,6 "/>
<polygon fill="#008952" points="89.2,10 93.4,10 93.4,41.3 88.6,41.3 72.3,16 72.2,16 72.2,41.3 68,41.3 68,10 73.1,10 89.2,35.3 
	89.2,35.3 "/>
<polygon fill="#008952" points="182,41.3 177.9,41.3 171.1,18.5 175.4,18.5 179.9,36.5 180,36.5 184.5,18.5 188.9,18.5 193.4,36.5 
	193.5,36.5 198.3,18.5 202.2,18.5 195.4,41.3 191.3,41.3 186.6,23.7 186.5,23.7 "/>
<polygon fill="#008952" points="240.7,10 266.7,10 266.7,13.8 255.9,13.8 255.9,41.3 251.6,41.3 251.6,13.8 240.7,13.8 "/>
<path fill="#008952" d="M278.6,28.1c-0.2-3.5-1.7-6.8-6.5-6.8c-3.6,0-6.5,3.3-6.5,6.8H278.6z M282.3,34.2c-0.1,1.1-1.2,4.3-4.2,6.2
	c-1.1,0.7-2.6,1.6-6.3,1.6c-6.6,0-10.5-4.8-10.5-11.4c0-7.1,3.5-12.7,11.2-12.7c6.7,0,10,5.2,10,13.3h-17.1c0,4.8,2.3,7.5,6.8,7.5
	c3.7,0,5.9-2.8,6-4.5H282.3z"/>
<rect x="286.1" y="10" fill="#008952" width="3.9" height="31.3"/>
<path fill="#008952" d="M220.8,28.1c-0.2-3.5-1.7-6.8-6.5-6.8c-3.6,0-6.5,3.3-6.5,6.8H220.8z M224.6,34.2c-0.1,1.1-1.2,4.3-4.2,6.2
	c-1.1,0.7-2.6,1.6-6.3,1.6c-6.6,0-10.5-4.8-10.5-11.4c0-7.1,3.5-12.7,11.2-12.7c6.7,0,10.1,5.2,10.1,13.3h-17.1
	c0,4.8,2.3,7.5,6.8,7.5c3.7,0,5.9-2.8,6-4.5H224.6z"/>
<path fill="#008952" d="M242.1,25c0-1.4-0.6-3.8-5.5-3.8c-1.2,0-4.6,0.4-4.6,3.2c0,1.9,1.2,2.3,4.2,3.1l3.9,1c4.9,1.2,6.6,2.9,6.6,6
	c0,4.7-4,7.5-9.2,7.5c-9.2,0-9.9-5.2-10.1-8h3.8c0.1,1.8,0.7,4.7,6.2,4.7c2.8,0,5.4-1.1,5.4-3.6c0-1.8-1.3-2.4-4.6-3.3l-4.6-1.1
	c-3.3-0.8-5.4-2.4-5.4-5.5c0-5,4.2-7.3,8.8-7.3c8.4,0,8.9,6,8.9,7.2H242.1z"/>
<path fill="#008952" d="M107.7,38.6c5.6,0,6.8-5.7,6.8-8.7c0-3.1-1.2-8.7-6.8-8.7c-5.6,0-6.8,5.7-6.8,8.7
	C100.9,33,102.1,38.6,107.7,38.6 M107.7,17.9c7.5,0,10.9,6.2,10.9,12c0,5.9-3.4,12-10.9,12c-7.5,0-10.9-6.2-10.9-12
	C96.8,24,100.2,17.9,107.7,17.9"/>
<path fill="#008952" d="M125.3,41.3h-3.9V18.5h3.7v3.8h0.1c1.6-2.7,3.6-4.5,6.6-4.5c0.5,0,0.7,0,1,0.1v4h-1.5c-3.7,0-6,2.8-6,6.1
	V41.3z"/>
<path fill="#008952" d="M142.4,21.7v14.8c0,1.8,1.6,1.8,2.4,1.8h1.4v3c-1.4,0.1-2.5,0.3-2.9,0.3c-3.9,0-4.7-2.1-4.7-4.9V21.7h-3.2
	v-3.2h3.2v-6.4h3.9v6.4h3.8v3.2H142.4z"/>
<path fill="#008952" d="M169.4,41.3h-3.9V26.4c0-3.1-0.9-5.1-4.6-5.1c-3.2,0-6.5,1.8-6.5,7.6v12.4h-3.9V10h3.9v11.6h0.1
	c1.1-1.4,3.1-3.7,6.8-3.7c3.6,0,8.2,1.4,8.2,7.9V41.3z"/>
</svg>
